<svg width="2560" height="1440" viewBox="0 0 2560 1440" fill="none" xmlns="http://www.w3.org/2000/svg">
<g clip-path="url(#clip0_70_39)">
<rect width="2560" height="1440" fill="#E7CFB5"/>
<g opacity="0.1">
<path d="M93.0001 -48.5L488.5 1805.5" stroke="#592F31" stroke-width="7" stroke-linecap="round"/>
<path d="M588 -48L983.5 1806" stroke="#592F31" stroke-width="7" stroke-linecap="round"/>
<path d="M1083 -85L1478.5 1769" stroke="#592F31" stroke-width="7" stroke-linecap="round"/>
<path d="M1578 -48.5L1973.5 1805.5" stroke="#592F31" stroke-width="7" stroke-linecap="round"/>
<path d="M2073 -48L2468.5 1806" stroke="#592F31" stroke-width="7" stroke-linecap="round"/>
<path d="M2610.25 77.75L-311.75 700.75" stroke="#592F31" stroke-width="7" stroke-linecap="round"/>
<path d="M2610.25 77.75L-311.75 700.75" stroke="#592F31" stroke-width="7" stroke-linecap="round"/>
<path d="M2882.25 522.75L-610.75 1267.75" stroke="#592F31" stroke-width="7" stroke-linecap="round"/>
<path d="M2759.75 1036.25L335.75 1553.25" stroke="#592F31" stroke-width="7" stroke-linecap="round"/>
</g>
<g opacity="0.8">
<circle cx="2479.38" cy="1346.38" r="296.5" transform="rotate(-2.04438 2479.38 1346.38)" stroke="#592F31" stroke-width="28"/>
<circle cx="2479.38" cy="1346.38" r="253.5" transform="rotate(-2.04438 2479.38 1346.38)" stroke="#592F31" stroke-width="8"/>
<path d="M2625.87 1198.81L2541.12 1405L2424.32 1294.07L2625.87 1198.81Z" fill="#592F31"/>
<path d="M2473.1 1277.33L2611.12 1210.42L2481.47 1346.93L2473.1 1277.33Z" fill="#E7CFB5"/>
<path d="M2552.04 1351.7L2611.74 1210.41L2482.1 1346.92L2552.04 1351.7Z" fill="#592F31"/>
<path d="M2472.67 1101.86C2473.22 1100 2475.83 1099.93 2476.47 1101.77L2560.46 1340.91C2560.91 1342.19 2559.98 1343.54 2558.63 1343.58L2403.09 1347.59C2401.74 1347.62 2400.74 1346.33 2401.12 1345.02L2472.67 1101.86Z" fill="#592F31"/>
<path d="M2334.11 1208.05C2333.33 1206.4 2334.99 1204.65 2336.68 1205.35L2535.4 1287.03C2536.7 1287.56 2537.06 1289.23 2536.09 1290.25L2429.18 1402.82C2428.22 1403.84 2426.53 1403.57 2425.92 1402.3L2334.11 1208.05Z" fill="#592F31"/>
<path d="M2410.43 1356.16L2343.52 1218.14L2480.03 1347.78L2410.43 1356.16Z" fill="#E7CFB5"/>
<path d="M2484.8 1277.22L2343.51 1217.51L2480.02 1347.16L2484.8 1277.22Z" fill="#592F31"/>
<path d="M2336.85 1497.7L2421.91 1291.8L2538.08 1402.13L2336.85 1497.7Z" fill="#592F31"/>
<path d="M2488.53 1418.14L2351.24 1485.74L2480.88 1349.23L2488.53 1418.14Z" fill="#592F31"/>
<path d="M2405.4 1347.38L2344.96 1487.98L2474.61 1351.47L2405.4 1347.38Z" fill="#E7CFB5"/>
<path d="M2235.92 1355.06C2234.06 1354.51 2233.99 1351.89 2235.83 1351.25L2474.97 1267.26C2476.25 1266.81 2477.6 1267.74 2477.64 1269.1L2481.65 1424.63C2481.68 1425.99 2480.39 1426.99 2479.08 1426.6L2235.92 1355.06Z" fill="#592F31"/>
<path d="M2630.8 1492.41L2424.9 1407.35L2535.23 1291.17L2630.8 1492.41Z" fill="#592F31"/>
<path d="M2551.24 1340.73L2618.84 1478.02L2482.33 1348.38L2551.24 1340.73Z" fill="#592F31"/>
<path d="M2478.25 1418.21L2618.85 1478.64L2482.34 1349L2478.25 1418.21Z" fill="#E7CFB5"/>
<path d="M2424.51 1293.9L2473.99 1117.93L2479.89 1346.86L2424.51 1293.9Z" fill="#E7CFB5"/>
<path d="M2532.47 1291.11L2473.99 1117.93L2479.89 1346.86L2532.47 1291.11Z" fill="#592F31"/>
<path d="M2729.81 1340.41L2478.07 1266.34L2482.22 1427.36L2729.81 1340.41Z" fill="#592F31"/>
<path d="M2485.34 1596.8L2398.38 1349.21L2559.41 1345.06L2485.34 1596.8Z" fill="#592F31"/>
<path d="M2423.15 1294.3L2249.97 1352.79L2478.89 1346.88L2423.15 1294.3Z" fill="#E7CFB5"/>
<path d="M2425.93 1402.27L2249.97 1352.79L2478.89 1346.88L2425.93 1402.27Z" fill="#592F31"/>
<path d="M2535.25 1398.82L2485.77 1574.78L2479.87 1345.86L2535.25 1398.82Z" fill="#592F31"/>
<path d="M2427.29 1401.6L2485.77 1574.78L2479.87 1345.86L2427.29 1401.6Z" fill="#E7CFB5"/>
<path d="M2536.64 1399.41L2709.82 1340.93L2480.89 1346.83L2536.64 1399.41Z" fill="#592F31"/>
<path d="M2533.85 1291.45L2709.82 1340.93L2480.89 1346.83L2533.85 1291.45Z" fill="#E7CFB5"/>
<path d="M2418.34 1287.43L2541.44 1406.29" stroke="#592F31" stroke-width="5"/>
<path d="M2538.38 1287.36L2420.45 1409.4" stroke="#592F31" stroke-width="5"/>
<path d="M2338.5 1210L2298 1172L2301 1169L2338.5 1210Z" fill="url(#paint0_linear_70_39)"/>
<path d="M2436.28 1262.72L2376.07 1115.39L2381.52 1113.72L2436.28 1262.72Z" fill="url(#paint1_linear_70_39)"/>
<path d="M2393.12 1305.74L2241.02 1258.87L2243.18 1253.6L2393.12 1305.74Z" fill="url(#paint2_linear_70_39)"/>
<path d="M2518.58 1266.06L2578.02 1118.42L2583.09 1121.01L2518.58 1266.06Z" fill="url(#paint3_linear_70_39)"/>
<path d="M2395.41 1389.55L2250.27 1454.89L2248.41 1449.5L2395.41 1389.55Z" fill="url(#paint4_linear_70_39)"/>
</g>
<path opacity="0.7" d="M2171.9 1354.72L66 1330" stroke="#592F31" stroke-width="12" stroke-dasharray="65 65"/>
<path opacity="0.7" d="M2479.11 1041.37L2508 190" stroke="#592F31" stroke-width="12" stroke-dasharray="65 65"/>
<g opacity="0.8" filter="url(#filter0_f_70_39)">
<mask id="path-45-inside-1_70_39" fill="white">
<path d="M2655 1575H-194V-236H2655V1575ZM495.567 75.5215C462.205 67.0843 427.356 66.5455 393.785 74.083L392.188 74.4482L306.565 94.3516C221.124 114.213 173.672 205.745 206.686 287.016L207.135 288.137C225.795 335.265 216.621 388.878 183.353 427.12L182.556 428.027L118.406 500.464C58.7282 567.851 35.7326 660.141 56.8174 747.65L92.0488 893.872L92.6055 896.229C95.3338 908.018 97.2629 919.979 98.3779 932.03L113.864 1099.42L114.026 1101.1C121.151 1172.14 162.554 1235.26 224.964 1270.07L226.349 1270.84C285.061 1303.04 355.274 1306.43 417.147 1280.76L431.816 1274.69C466.083 1260.53 500.325 1246.62 528.013 1235.8C543.838 1229.62 557.494 1224.47 567.78 1220.86C572.927 1219.06 577.194 1217.65 580.447 1216.71C583.882 1215.7 585.744 1215.35 586.362 1215.35C586.356 1215.35 586.462 1215.35 586.73 1215.39C586.983 1215.42 587.316 1215.47 587.737 1215.55C588.581 1215.71 589.692 1215.94 591.074 1216.27C593.835 1216.92 597.559 1217.89 602.172 1219.15C611.391 1221.68 624.049 1225.35 639.409 1229.93C670.125 1239.09 711.571 1251.85 757.768 1266.27C850.158 1295.11 961.504 1330.56 1043.91 1356.98L1045.89 1357.61C1066.42 1364.02 1087.63 1368.03 1109.09 1369.52L1436.39 1392.31L1438.7 1392.46C1487.24 1395.42 1535.48 1385.15 1580.42 1367.13L1583.65 1365.84C1617.23 1352.51 1658.99 1337.87 1700.71 1328.3C1743.87 1318.4 1786.56 1314.01 1820.01 1321.76L1825.51 1323.02C1883.43 1336.33 1975.36 1355.87 2050.33 1371.59L2052.2 1371.98C2131.44 1388.02 2213.86 1368.27 2276.18 1316.57L2282.94 1310.94C2316.91 1282.66 2352.59 1252.23 2378.97 1227.87L2380.74 1226.25C2389.66 1218.21 2399.22 1211.01 2409.54 1205L2410.9 1204.2C2467.57 1170.47 2498.56 1106.07 2489.57 1040.73L2489.34 1039.18L2478.35 964.636C2473.26 930.091 2474.96 894.884 2483.34 860.987L2509.12 756.812L2509.48 755.311C2524.72 692.186 2516.82 625.686 2487.21 567.893L2486.5 566.519L2462.88 521.054C2439.45 475.962 2438.58 422.48 2460.52 376.649L2461.17 375.29C2487.94 318.098 2480.52 250.727 2441.94 200.73L2441.02 199.543L2423.34 177.046C2369.22 108.163 2278.73 79.1186 2194.72 103.475L2192.74 104.06L2066.78 141.891C2009.67 159.04 1948.51 156.689 1892.93 135.254L1890.29 134.219L1806.95 101.062C1744.61 76.2619 1675.45 75.0896 1611.73 95.7383L1610.22 96.2305C1563.25 111.724 1512.26 128.031 1470.36 141.286L1453 146.77C1407.48 161.116 1359.06 162.787 1312.65 151.782L1310.44 151.249C1243.9 134.871 1143.32 109.913 1058.75 88.0791L1042.06 83.7578C990.336 70.3152 935.919 71.4835 884.873 87.2197L882.444 87.9805C849.132 98.5742 814.296 109.403 786.353 117.581C772.377 121.671 760.154 125.09 750.719 127.483C745.999 128.681 742.008 129.613 738.86 130.244C735.628 130.892 733.531 131.17 732.469 131.17C731.106 131.17 727.884 130.74 722.76 129.809C717.759 128.9 711.234 127.57 703.465 125.892C687.931 122.536 667.517 117.81 644.569 112.334C604.416 102.751 556.559 90.885 513.628 80.0781L495.567 75.5215Z"/>
</mask>
<path d="M2655 1575H-194V-236H2655V1575ZM495.567 75.5215C462.205 67.0843 427.356 66.5455 393.785 74.083L392.188 74.4482L306.565 94.3516C221.124 114.213 173.672 205.745 206.686 287.016L207.135 288.137C225.795 335.265 216.621 388.878 183.353 427.12L182.556 428.027L118.406 500.464C58.7282 567.851 35.7326 660.141 56.8174 747.65L92.0488 893.872L92.6055 896.229C95.3338 908.018 97.2629 919.979 98.3779 932.03L113.864 1099.42L114.026 1101.1C121.151 1172.14 162.554 1235.26 224.964 1270.07L226.349 1270.84C285.061 1303.04 355.274 1306.43 417.147 1280.76L431.816 1274.69C466.083 1260.53 500.325 1246.62 528.013 1235.8C543.838 1229.62 557.494 1224.47 567.78 1220.86C572.927 1219.06 577.194 1217.65 580.447 1216.71C583.882 1215.7 585.744 1215.35 586.362 1215.35C586.356 1215.35 586.462 1215.35 586.73 1215.39C586.983 1215.42 587.316 1215.47 587.737 1215.55C588.581 1215.71 589.692 1215.94 591.074 1216.27C593.835 1216.92 597.559 1217.89 602.172 1219.15C611.391 1221.68 624.049 1225.35 639.409 1229.93C670.125 1239.09 711.571 1251.85 757.768 1266.27C850.158 1295.11 961.504 1330.56 1043.91 1356.98L1045.89 1357.61C1066.42 1364.02 1087.63 1368.03 1109.09 1369.52L1436.39 1392.31L1438.7 1392.46C1487.24 1395.42 1535.48 1385.15 1580.42 1367.13L1583.65 1365.84C1617.23 1352.51 1658.99 1337.87 1700.71 1328.3C1743.87 1318.4 1786.56 1314.01 1820.01 1321.76L1825.51 1323.02C1883.43 1336.33 1975.36 1355.87 2050.33 1371.59L2052.2 1371.98C2131.44 1388.02 2213.86 1368.27 2276.18 1316.57L2282.94 1310.94C2316.91 1282.66 2352.59 1252.23 2378.97 1227.87L2380.74 1226.25C2389.66 1218.21 2399.22 1211.01 2409.54 1205L2410.9 1204.2C2467.57 1170.47 2498.56 1106.07 2489.57 1040.73L2489.34 1039.18L2478.35 964.636C2473.26 930.091 2474.96 894.884 2483.34 860.987L2509.12 756.812L2509.48 755.311C2524.72 692.186 2516.82 625.686 2487.21 567.893L2486.5 566.519L2462.88 521.054C2439.45 475.962 2438.58 422.48 2460.52 376.649L2461.17 375.29C2487.94 318.098 2480.52 250.727 2441.94 200.73L2441.02 199.543L2423.34 177.046C2369.22 108.163 2278.73 79.1186 2194.72 103.475L2192.74 104.06L2066.78 141.891C2009.67 159.04 1948.51 156.689 1892.93 135.254L1890.29 134.219L1806.95 101.062C1744.61 76.2619 1675.45 75.0896 1611.73 95.7383L1610.22 96.2305C1563.25 111.724 1512.26 128.031 1470.36 141.286L1453 146.77C1407.48 161.116 1359.06 162.787 1312.65 151.782L1310.44 151.249C1243.9 134.871 1143.32 109.913 1058.75 88.0791L1042.06 83.7578C990.336 70.3152 935.919 71.4835 884.873 87.2197L882.444 87.9805C849.132 98.5742 814.296 109.403 786.353 117.581C772.377 121.671 760.154 125.09 750.719 127.483C745.999 128.681 742.008 129.613 738.86 130.244C735.628 130.892 733.531 131.17 732.469 131.17C731.106 131.17 727.884 130.74 722.76 129.809C717.759 128.9 711.234 127.57 703.465 125.892C687.931 122.536 667.517 117.81 644.569 112.334C604.416 102.751 556.559 90.885 513.628 80.0781L495.567 75.5215Z" fill="#C7A077"/>
<path d="M2655 1575V1576H2656V1575H2655ZM-194 1575H-195V1576H-194V1575ZM-194 -236V-237H-195V-236H-194ZM2655 -236H2656V-237H2655V-236ZM495.567 75.5215L495.322 76.491L495.323 76.4911L495.567 75.5215ZM393.785 74.083L393.566 73.1073L393.562 73.1082L393.785 74.083ZM392.188 74.4482L391.965 73.4734L391.961 73.4742L392.188 74.4482ZM306.565 94.3516L306.792 95.3256L306.565 94.3516ZM206.686 287.016L207.614 286.644L207.612 286.639L206.686 287.016ZM207.135 288.137L208.065 287.769L208.063 287.765L207.135 288.137ZM183.353 427.12L184.104 427.78L184.107 427.776L183.353 427.12ZM182.556 428.027L183.304 428.69L183.307 428.687L182.556 428.027ZM118.406 500.464L119.155 501.127L118.406 500.464ZM56.8174 747.65L55.8452 747.885L56.8174 747.65ZM92.0488 893.872L93.0221 893.642L93.021 893.638L92.0488 893.872ZM92.6055 896.229L93.5797 896.003L93.5787 895.999L92.6055 896.229ZM98.3779 932.03L99.3737 931.938L98.3779 932.03ZM113.864 1099.42L112.868 1099.51L112.869 1099.52L113.864 1099.42ZM114.026 1101.1L113.031 1101.2L113.031 1101.2L114.026 1101.1ZM224.964 1270.07L224.477 1270.95L224.48 1270.95L224.964 1270.07ZM226.349 1270.84L225.865 1271.71L225.868 1271.72L226.349 1270.84ZM417.147 1280.76L416.765 1279.84L416.764 1279.84L417.147 1280.76ZM431.816 1274.69L431.435 1273.76L431.434 1273.76L431.816 1274.69ZM528.013 1235.8L527.649 1234.87L528.013 1235.8ZM567.78 1220.86L567.449 1219.92L567.78 1220.86ZM580.447 1216.71L580.167 1215.74L580.447 1216.71ZM586.362 1215.35L586.366 1216.35L586.362 1214.35L586.362 1215.35ZM586.73 1215.39L586.858 1214.4L586.73 1215.39ZM587.737 1215.55L587.918 1214.57L587.737 1215.55ZM591.074 1216.27L591.304 1215.3L591.074 1216.27ZM602.172 1219.15L602.436 1218.19L602.172 1219.15ZM639.409 1229.93L639.695 1228.97L639.409 1229.93ZM757.768 1266.27L758.066 1265.32L757.768 1266.27ZM1043.91 1356.98L1043.6 1357.93L1043.61 1357.94L1043.91 1356.98ZM1045.89 1357.61L1045.59 1358.56L1045.6 1358.56L1045.89 1357.61ZM1109.09 1369.52L1109.16 1368.53L1109.09 1369.52ZM1436.39 1392.31L1436.32 1393.31L1436.32 1393.31L1436.39 1392.31ZM1438.7 1392.46L1438.64 1393.46L1438.64 1393.46L1438.7 1392.46ZM1580.42 1367.13L1580.05 1366.2L1580.05 1366.2L1580.42 1367.13ZM1583.65 1365.84L1583.28 1364.91L1583.28 1364.91L1583.65 1365.84ZM1700.71 1328.3L1700.49 1327.32L1700.71 1328.3ZM1820.01 1321.76L1819.78 1322.73L1819.79 1322.73L1820.01 1321.76ZM1825.51 1323.02L1825.28 1324L1825.28 1324L1825.51 1323.02ZM2050.33 1371.59L2050.12 1372.57L2050.13 1372.57L2050.33 1371.59ZM2052.2 1371.98L2052 1372.96L2052 1372.96L2052.2 1371.98ZM2276.18 1316.57L2276.82 1317.34L2276.82 1317.34L2276.18 1316.57ZM2282.94 1310.94L2283.58 1311.71L2283.58 1311.71L2282.94 1310.94ZM2378.97 1227.87L2378.29 1227.13L2378.29 1227.13L2378.97 1227.87ZM2380.74 1226.25L2380.07 1225.5L2380.07 1225.51L2380.74 1226.25ZM2409.54 1205L2410.05 1205.87L2410.05 1205.86L2409.54 1205ZM2410.9 1204.2L2411.4 1205.06L2411.41 1205.06L2410.9 1204.2ZM2489.57 1040.73L2490.56 1040.6L2490.56 1040.59L2489.57 1040.73ZM2489.34 1039.18L2490.33 1039.04L2490.33 1039.03L2489.34 1039.18ZM2478.35 964.636L2479.34 964.49L2478.35 964.636ZM2483.34 860.987L2484.31 861.228V861.227L2483.34 860.987ZM2509.12 756.812L2510.09 757.053L2510.09 757.05L2509.12 756.812ZM2509.48 755.311L2510.46 755.548L2510.46 755.545L2509.48 755.311ZM2487.21 567.893L2488.1 567.437L2488.09 567.434L2487.21 567.893ZM2486.5 566.519L2487.39 566.06L2487.38 566.057L2486.5 566.519ZM2462.88 521.054L2463.76 520.593L2462.88 521.054ZM2460.52 376.649L2461.43 377.081L2461.43 377.077L2460.52 376.649ZM2461.17 375.29L2462.07 375.718L2462.07 375.714L2461.17 375.29ZM2441.94 200.73L2442.74 200.12L2442.73 200.116L2441.94 200.73ZM2441.02 199.543L2441.81 198.929L2441.81 198.925L2441.02 199.543ZM2423.34 177.046L2422.56 177.664V177.664L2423.34 177.046ZM2194.72 103.475L2194.45 102.514L2194.44 102.515L2194.72 103.475ZM2192.74 104.06L2192.46 103.1L2192.45 103.102L2192.74 104.06ZM2066.78 141.891L2067.06 142.848L2066.78 141.891ZM1892.93 135.254L1892.57 136.185L1892.57 136.187L1892.93 135.254ZM1890.29 134.219L1889.92 135.148L1889.93 135.15L1890.29 134.219ZM1806.95 101.062L1806.58 101.992L1806.95 101.062ZM1611.73 95.7383L1611.42 94.787L1611.42 94.7879L1611.73 95.7383ZM1610.22 96.2305L1609.91 95.2801L1609.91 95.2808L1610.22 96.2305ZM1470.36 141.286L1470.66 142.24L1470.66 142.24L1470.36 141.286ZM1453 146.77L1453.3 147.723L1453.3 147.723L1453 146.77ZM1312.65 151.782L1312.42 152.754L1312.42 152.755L1312.65 151.782ZM1310.44 151.249L1310.2 152.22L1310.21 152.221L1310.44 151.249ZM1058.75 88.0791L1058.5 89.0472L1058.5 89.0474L1058.75 88.0791ZM1042.06 83.7578L1041.81 84.7257L1041.81 84.7259L1042.06 83.7578ZM884.873 87.2197L884.578 86.2641L884.574 86.2654L884.873 87.2197ZM882.444 87.9805L882.145 87.0262L882.141 87.0275L882.444 87.9805ZM786.353 117.581L786.633 118.541L786.353 117.581ZM750.719 127.483L750.965 128.453L750.719 127.483ZM738.86 130.244L739.057 131.225L738.86 130.244ZM732.469 131.17V132.17H732.469L732.469 131.17ZM722.76 129.809L722.581 130.792L722.76 129.809ZM703.465 125.892L703.254 126.869L703.465 125.892ZM644.569 112.334L644.337 113.307L644.569 112.334ZM513.628 80.0781L513.383 81.0477L513.384 81.0479L513.628 80.0781ZM2655 1575V1574H-194V1575V1576H2655V1575ZM-194 1575H-193V-236H-194H-195V1575H-194ZM-194 -236V-235H2655V-236V-237H-194V-236ZM2655 -236H2654V1575H2655H2656V-236H2655ZM495.567 75.5215L495.813 74.552C462.3 66.0767 427.291 65.5351 393.566 73.1073L393.785 74.083L394.004 75.0587C427.42 67.5559 462.111 68.0919 495.322 76.491L495.567 75.5215ZM393.785 74.083L393.562 73.1082L391.965 73.4734L392.188 74.4482L392.41 75.4231L394.008 75.0579L393.785 74.083ZM392.188 74.4482L391.961 73.4742L306.339 93.3775L306.565 94.3516L306.792 95.3256L392.414 75.4223L392.188 74.4482ZM306.565 94.3516L306.339 93.3775C220.298 113.378 172.514 205.552 205.759 287.392L206.686 287.016L207.612 286.639C174.83 205.938 221.949 115.048 306.792 95.3256L306.565 94.3516ZM206.686 287.016L205.757 287.388L206.207 288.509L207.135 288.137L208.063 287.765L207.614 286.644L206.686 287.016ZM207.135 288.137L206.205 288.505C224.727 335.286 215.621 388.503 182.598 426.464L183.353 427.12L184.107 427.776C217.62 389.252 226.862 335.244 208.065 287.769L207.135 288.137ZM183.353 427.12L182.601 426.46L181.804 427.367L182.556 428.027L183.307 428.687L184.104 427.78L183.353 427.12ZM182.556 428.027L181.807 427.364L117.658 499.801L118.406 500.464L119.155 501.127L183.304 428.69L182.556 428.027ZM118.406 500.464L117.658 499.801C57.763 567.432 34.6839 660.058 55.8452 747.885L56.8174 747.65L57.7896 747.416C36.7813 660.225 59.6935 568.269 119.155 501.127L118.406 500.464ZM56.8174 747.65L55.8452 747.885L91.0767 894.106L92.0488 893.872L93.021 893.638L57.7896 747.416L56.8174 747.65ZM92.0488 893.872L91.0756 894.102L91.6323 896.458L92.6055 896.229L93.5787 895.999L93.022 893.642L92.0488 893.872ZM92.6055 896.229L91.6312 896.454C94.3494 908.199 96.2713 920.116 97.3822 932.122L98.3779 932.03L99.3737 931.938C98.2545 919.842 96.3182 907.836 93.5797 896.003L92.6055 896.229ZM98.3779 932.03L97.3822 932.122L112.868 1099.51L113.864 1099.42L114.86 1099.33L99.3737 931.938L98.3779 932.03ZM113.864 1099.42L112.869 1099.52L113.031 1101.2L114.026 1101.1L115.022 1101L114.86 1099.32L113.864 1099.42ZM114.026 1101.1L113.031 1101.2C120.189 1172.56 161.781 1235.97 224.477 1270.95L224.964 1270.07L225.451 1269.2C163.326 1234.54 122.113 1171.71 115.021 1101L114.026 1101.1ZM224.964 1270.07L224.48 1270.95L225.865 1271.71L226.349 1270.84L226.832 1269.96L225.448 1269.2L224.964 1270.07ZM226.349 1270.84L225.868 1271.72C284.851 1304.06 355.381 1307.47 417.531 1281.68L417.147 1280.76L416.764 1279.84C355.167 1305.39 285.272 1302.01 226.829 1269.96L226.349 1270.84ZM417.147 1280.76L417.53 1281.68L432.199 1275.61L431.816 1274.69L431.434 1273.76L416.765 1279.84L417.147 1280.76ZM431.816 1274.69L432.198 1275.61C466.463 1261.46 500.697 1247.55 528.376 1236.74L528.013 1235.8L527.649 1234.87C499.952 1245.69 465.704 1259.61 431.435 1273.76L431.816 1274.69ZM528.013 1235.8L528.376 1236.74C544.198 1230.56 557.842 1225.41 568.111 1221.81L567.78 1220.86L567.449 1219.92C557.147 1223.53 543.478 1228.69 527.649 1234.87L528.013 1235.8ZM567.78 1220.86L568.111 1221.81C573.251 1220 577.498 1218.61 580.727 1217.67L580.447 1216.71L580.167 1215.74C576.889 1216.7 572.603 1218.11 567.449 1219.92L567.78 1220.86ZM580.447 1216.71L580.727 1217.67C582.43 1217.17 583.731 1216.84 584.675 1216.63C585.649 1216.42 586.173 1216.35 586.362 1216.35L586.362 1215.35L586.362 1214.35C585.933 1214.35 585.217 1214.46 584.246 1214.68C583.246 1214.9 581.899 1215.24 580.167 1215.74L580.447 1216.71ZM586.362 1215.35L586.359 1214.35C586.356 1214.35 586.352 1214.35 586.346 1214.35C586.342 1214.35 586.33 1214.35 586.314 1214.35C586.307 1214.35 586.29 1214.35 586.268 1214.35C586.258 1214.36 586.232 1214.36 586.217 1214.36C586.194 1214.36 586.131 1214.38 586.093 1214.39C586.015 1214.41 585.747 1214.56 585.586 1214.72C585.372 1215.21 585.597 1215.99 585.823 1216.19C585.913 1216.24 586.051 1216.3 586.096 1216.31C586.122 1216.32 586.164 1216.33 586.181 1216.33C586.211 1216.34 586.236 1216.34 586.244 1216.34C586.255 1216.34 586.264 1216.35 586.269 1216.35C586.28 1216.35 586.288 1216.35 586.291 1216.35C586.299 1216.35 586.304 1216.35 586.306 1216.35C586.31 1216.35 586.313 1216.35 586.313 1216.35C586.314 1216.35 586.314 1216.35 586.315 1216.35C586.315 1216.35 586.315 1216.35 586.315 1216.35C586.316 1216.35 586.317 1216.35 586.32 1216.35C586.325 1216.35 586.338 1216.35 586.36 1216.35C586.403 1216.36 586.482 1216.36 586.603 1216.38L586.73 1215.39L586.858 1214.4C586.71 1214.38 586.602 1214.37 586.527 1214.36C586.49 1214.36 586.461 1214.35 586.439 1214.35C586.429 1214.35 586.42 1214.35 586.416 1214.35C586.41 1214.35 586.415 1214.35 586.419 1214.35C586.42 1214.35 586.426 1214.35 586.433 1214.35C586.437 1214.35 586.445 1214.35 586.455 1214.35C586.46 1214.36 586.469 1214.36 586.48 1214.36C586.489 1214.36 586.513 1214.36 586.543 1214.37C586.56 1214.37 586.602 1214.38 586.628 1214.39C586.673 1214.4 586.811 1214.46 586.901 1214.51C587.127 1214.71 587.352 1215.49 587.138 1215.98C586.977 1216.14 586.71 1216.29 586.631 1216.31C586.593 1216.32 586.53 1216.34 586.507 1216.34C586.492 1216.34 586.466 1216.35 586.456 1216.35C586.434 1216.35 586.417 1216.35 586.41 1216.35C586.394 1216.35 586.382 1216.35 586.378 1216.35C586.373 1216.35 586.368 1216.35 586.366 1216.35L586.362 1215.35ZM586.73 1215.39L586.603 1216.38C586.833 1216.41 587.147 1216.46 587.556 1216.53L587.737 1215.55L587.918 1214.57C587.484 1214.49 587.133 1214.43 586.858 1214.4L586.73 1215.39ZM587.737 1215.55L587.556 1216.53C588.377 1216.68 589.471 1216.92 590.845 1217.24L591.074 1216.27L591.304 1215.3C589.913 1214.97 588.785 1214.73 587.918 1214.57L587.737 1215.55ZM591.074 1216.27L590.845 1217.24C593.588 1217.89 597.299 1218.85 601.908 1220.12L602.172 1219.15L602.436 1218.19C597.819 1216.92 594.081 1215.95 591.304 1215.3L591.074 1216.27ZM602.172 1219.15L601.908 1220.12C611.116 1222.64 623.765 1226.31 639.123 1230.89L639.409 1229.93L639.695 1228.97C624.332 1224.39 611.666 1220.72 602.436 1218.19L602.172 1219.15ZM639.409 1229.93L639.123 1230.89C669.833 1240.04 711.274 1252.81 757.47 1267.23L757.768 1266.27L758.066 1265.32C711.867 1250.9 670.417 1238.13 639.695 1228.97L639.409 1229.93ZM757.768 1266.27L757.47 1267.23C849.856 1296.07 961.2 1331.51 1043.6 1357.93L1043.91 1356.98L1044.21 1356.03C961.808 1329.61 850.459 1294.16 758.066 1265.32L757.768 1266.27ZM1043.91 1356.98L1043.61 1357.94L1045.59 1358.56L1045.89 1357.61L1046.2 1356.66L1044.21 1356.03L1043.91 1356.98ZM1045.89 1357.61L1045.6 1358.56C1066.2 1365 1087.48 1369.02 1109.02 1370.52L1109.09 1369.52L1109.16 1368.53C1087.78 1367.04 1066.65 1363.05 1046.19 1356.66L1045.89 1357.61ZM1109.09 1369.52L1109.02 1370.52L1436.32 1393.31L1436.39 1392.31L1436.46 1391.32L1109.16 1368.53L1109.09 1369.52ZM1436.39 1392.31L1436.32 1393.31L1438.64 1393.46L1438.7 1392.46L1438.77 1391.47L1436.45 1391.32L1436.39 1392.31ZM1438.7 1392.46L1438.64 1393.46C1487.36 1396.43 1535.75 1386.11 1580.8 1368.06L1580.42 1367.13L1580.05 1366.2C1535.21 1384.18 1487.12 1394.41 1438.76 1391.47L1438.7 1392.46ZM1580.42 1367.13L1580.79 1368.06L1584.02 1366.77L1583.65 1365.84L1583.28 1364.91L1580.05 1366.2L1580.42 1367.13ZM1583.65 1365.84L1584.02 1366.77C1617.57 1353.45 1659.28 1338.83 1700.93 1329.27L1700.71 1328.3L1700.49 1327.32C1658.7 1336.91 1616.89 1351.57 1583.28 1364.91L1583.65 1365.84ZM1700.71 1328.3L1700.93 1329.27C1744.05 1319.38 1786.55 1315.04 1819.78 1322.73L1820.01 1321.76L1820.24 1320.78C1786.56 1312.99 1743.69 1317.41 1700.49 1327.32L1700.71 1328.3ZM1820.01 1321.76L1819.79 1322.73L1825.28 1324L1825.51 1323.02L1825.73 1322.05L1820.23 1320.78L1820.01 1321.76ZM1825.51 1323.02L1825.28 1324C1883.22 1337.3 1975.15 1356.85 2050.12 1372.57L2050.33 1371.59L2050.54 1370.61C1975.56 1354.9 1883.65 1335.35 1825.73 1322.05L1825.51 1323.02ZM2050.33 1371.59L2050.13 1372.57L2052 1372.96L2052.2 1371.98L2052.4 1371L2050.53 1370.61L2050.33 1371.59ZM2052.2 1371.98L2052 1372.96C2131.53 1389.06 2214.26 1369.24 2276.82 1317.34L2276.18 1316.57L2275.54 1315.8C2213.46 1367.31 2131.35 1386.98 2052.4 1371L2052.2 1371.98ZM2276.18 1316.57L2276.82 1317.34L2283.58 1311.71L2282.94 1310.94L2282.31 1310.18L2275.54 1315.8L2276.18 1316.57ZM2282.94 1310.94L2283.58 1311.71C2317.56 1283.43 2353.25 1252.98 2379.65 1228.6L2378.97 1227.87L2378.29 1227.13C2351.93 1251.47 2316.27 1281.9 2282.3 1310.18L2282.94 1310.94ZM2378.97 1227.87L2379.64 1228.6L2381.42 1226.98L2380.74 1226.25L2380.07 1225.51L2378.29 1227.13L2378.97 1227.87ZM2380.74 1226.25L2381.41 1226.99C2390.28 1218.99 2399.79 1211.84 2410.05 1205.87L2409.54 1205L2409.04 1204.14C2398.65 1210.19 2389.03 1217.42 2380.07 1225.5L2380.74 1226.25ZM2409.54 1205L2410.05 1205.86L2411.4 1205.06L2410.9 1204.2L2410.39 1203.34L2409.04 1204.14L2409.54 1205ZM2410.9 1204.2L2411.41 1205.06C2468.43 1171.12 2499.61 1106.33 2490.56 1040.6L2489.57 1040.73L2488.57 1040.87C2497.52 1105.81 2466.72 1169.82 2410.39 1203.34L2410.9 1204.2ZM2489.57 1040.73L2490.56 1040.59L2490.33 1039.04L2489.34 1039.18L2488.35 1039.32L2488.58 1040.87L2489.57 1040.73ZM2489.34 1039.18L2490.33 1039.03L2479.34 964.49L2478.35 964.636L2477.37 964.782L2488.35 1039.32L2489.34 1039.18ZM2478.35 964.636L2479.34 964.49C2474.27 930.074 2475.96 894.998 2484.31 861.228L2483.34 860.987L2482.37 860.747C2473.95 894.77 2472.25 930.108 2477.37 964.782L2478.35 964.636ZM2483.34 860.987L2484.31 861.227L2510.09 757.053L2509.12 756.812L2508.15 756.572L2482.37 860.747L2483.34 860.987ZM2509.12 756.812L2510.09 757.05L2510.46 755.548L2509.48 755.311L2508.51 755.073L2508.15 756.575L2509.12 756.812ZM2509.48 755.311L2510.46 755.545C2525.75 692.188 2517.82 625.443 2488.1 567.437L2487.21 567.893L2486.32 568.349C2515.82 625.929 2523.69 692.184 2508.51 755.076L2509.48 755.311ZM2487.21 567.893L2488.09 567.434L2487.39 566.06L2486.5 566.519L2485.61 566.977L2486.32 568.351L2487.21 567.893ZM2486.5 566.519L2487.38 566.057L2463.76 520.593L2462.88 521.054L2461.99 521.515L2485.61 566.98L2486.5 566.519ZM2462.88 521.054L2463.76 520.593C2440.48 475.78 2439.61 422.629 2461.43 377.081L2460.52 376.649L2459.62 376.217C2437.54 422.331 2438.41 476.144 2461.99 521.515L2462.88 521.054ZM2460.52 376.649L2461.43 377.077L2462.07 375.718L2461.17 375.29L2460.26 374.862L2459.62 376.221L2460.52 376.649ZM2461.17 375.29L2462.07 375.714C2489 318.182 2481.54 250.413 2442.74 200.12L2441.94 200.73L2441.15 201.341C2479.5 251.042 2486.87 318.013 2460.26 374.866L2461.17 375.29ZM2441.94 200.73L2442.73 200.116L2441.81 198.929L2441.02 199.543L2440.23 200.157L2441.16 201.345L2441.94 200.73ZM2441.02 199.543L2441.81 198.925L2424.13 176.428L2423.34 177.046L2422.56 177.664L2440.23 200.161L2441.02 199.543ZM2423.34 177.046L2424.13 176.428C2369.75 107.224 2278.84 78.0447 2194.45 102.514L2194.72 103.475L2195 104.435C2278.62 80.1925 2368.68 109.101 2422.56 177.664L2423.34 177.046ZM2194.72 103.475L2194.44 102.515L2192.46 103.1L2192.74 104.06L2193.02 105.019L2195.01 104.434L2194.72 103.475ZM2192.74 104.06L2192.45 103.102L2066.49 140.933L2066.78 141.891L2067.06 142.848L2193.03 105.017L2192.74 104.06ZM2066.78 141.891L2066.49 140.933C2009.6 158.019 1948.67 155.676 1893.29 134.321L1892.93 135.254L1892.57 136.187C1948.36 157.701 2009.75 160.062 2067.06 142.848L2066.78 141.891ZM1892.93 135.254L1893.3 134.323L1890.66 133.288L1890.29 134.219L1889.93 135.15L1892.57 136.185L1892.93 135.254ZM1890.29 134.219L1890.66 133.29L1807.32 100.133L1806.95 101.062L1806.58 101.992L1889.92 135.148L1890.29 134.219ZM1806.95 101.062L1807.32 100.133C1744.76 75.2424 1675.35 74.07 1611.42 94.787L1611.73 95.7383L1612.04 96.6896C1675.55 76.1092 1744.47 77.2814 1806.58 101.992L1806.95 101.062ZM1611.73 95.7383L1611.42 94.7879L1609.91 95.2801L1610.22 96.2305L1610.53 97.1809L1612.04 96.6887L1611.73 95.7383ZM1610.22 96.2305L1609.91 95.2808C1562.95 110.773 1511.96 127.078 1470.06 140.333L1470.36 141.286L1470.66 142.24C1512.57 128.983 1563.56 112.676 1610.54 97.1801L1610.22 96.2305ZM1470.36 141.286L1470.06 140.333L1452.7 145.816L1453 146.77L1453.3 147.723L1470.66 142.24L1470.36 141.286ZM1453 146.77L1452.7 145.816C1407.36 160.108 1359.12 161.773 1312.88 150.809L1312.65 151.782L1312.42 152.755C1359.01 163.802 1407.61 162.125 1453.3 147.723L1453 146.77ZM1312.65 151.782L1312.89 150.81L1310.68 150.277L1310.44 151.249L1310.21 152.221L1312.42 152.754L1312.65 151.782ZM1310.44 151.249L1310.68 150.278C1244.14 133.9 1143.57 108.943 1059 87.1108L1058.75 88.0791L1058.5 89.0474C1143.08 110.883 1243.66 135.842 1310.2 152.22L1310.44 151.249ZM1058.75 88.0791L1059 87.111L1042.32 82.7897L1042.06 83.7578L1041.81 84.7259L1058.5 89.0472L1058.75 88.0791ZM1042.06 83.7578L1042.32 82.7899C990.409 69.3009 935.803 70.473 884.578 86.2641L884.873 87.2197L885.168 88.1754C936.036 72.494 990.264 71.3296 1041.81 84.7257L1042.06 83.7578ZM884.873 87.2197L884.574 86.2654L882.145 87.0262L882.444 87.9805L882.743 88.9348L885.172 88.174L884.873 87.2197ZM882.444 87.9805L882.141 87.0275C848.831 97.6203 814.004 108.447 786.072 116.621L786.353 117.581L786.633 118.541C814.588 110.36 849.432 99.528 882.747 88.9334L882.444 87.9805ZM786.353 117.581L786.072 116.621C772.101 120.71 759.891 124.125 750.473 126.514L750.719 127.483L750.965 128.453C760.417 126.055 772.654 122.632 786.633 118.541L786.353 117.581ZM750.719 127.483L750.473 126.514C745.761 127.709 741.788 128.637 738.664 129.264L738.86 130.244L739.057 131.225C742.228 130.589 746.237 129.652 750.965 128.453L750.719 127.483ZM738.86 130.244L738.664 129.264C735.429 129.912 733.421 130.17 732.469 130.17L732.469 131.17L732.469 132.17C733.641 132.17 735.826 131.872 739.057 131.225L738.86 130.244ZM732.469 131.17V130.17C731.213 130.17 728.083 129.76 722.939 128.825L722.76 129.809L722.581 130.792C727.684 131.72 730.999 132.17 732.469 132.17V131.17ZM722.76 129.809L722.939 128.825C717.954 127.919 711.441 126.591 703.676 124.914L703.465 125.892L703.254 126.869C711.028 128.548 717.565 129.881 722.581 130.792L722.76 129.809ZM703.465 125.892L703.676 124.914C688.152 121.561 667.746 116.837 644.801 111.361L644.569 112.334L644.337 113.307C667.287 118.784 687.709 123.512 703.254 126.869L703.465 125.892ZM644.569 112.334L644.801 111.361C604.653 101.78 556.801 89.9148 513.872 79.1084L513.628 80.0781L513.384 81.0479C556.316 91.8552 604.178 103.723 644.337 113.307L644.569 112.334ZM513.628 80.0781L513.873 79.1085L495.812 74.5519L495.567 75.5215L495.323 76.4911L513.383 81.0477L513.628 80.0781Z" fill="black" mask="url(#path-45-inside-1_70_39)"/>
</g>
<path d="M-88.9856 876.094L56.3305 1521.95M-31.1707 858.268L114.145 1504.12" stroke="#592F31" stroke-width="7" stroke-linecap="round"/>
<rect x="-61" y="991.475" width="57.0272" height="146" transform="rotate(-12.6359 -61 991.475)" fill="#592F31"/>
<rect x="-3" y="1252.47" width="57.0272" height="146" transform="rotate(-12.6359 -3 1252.47)" fill="#592F31"/>
<path d="M606.326 -91.0428L-40.141 51.5095M623.905 -33.1521L-22.5625 109.4" stroke="#592F31" stroke-width="7" stroke-linecap="round"/>
<rect x="490.826" y="-63.5508" width="57.0272" height="146" transform="rotate(77.6092 490.826 -63.5508)" fill="#592F31"/>
<rect x="229.58" y="-6.66895" width="57.0272" height="146" transform="rotate(77.6092 229.58 -6.66895)" fill="#592F31"/>
<path d="M2417.01 -191.906L2562.33 453.946M2474.83 -209.732L2620.15 436.12" stroke="#592F31" stroke-width="7" stroke-linecap="round"/>
<rect x="2445" y="-76.5254" width="57.0272" height="146" transform="rotate(-12.6359 2445 -76.5254)" fill="#592F31"/>
<rect x="2503" y="184.475" width="57.0272" height="146" transform="rotate(-12.6359 2503 184.475)" fill="#592F31"/>
</g>
<defs>
<filter id="filter0_f_70_39" x="-594" y="-636" width="3649" height="2611" filterUnits="userSpaceOnUse" color-interpolation-filters="sRGB">
<feFlood flood-opacity="0" result="BackgroundImageFix"/>
<feBlend mode="normal" in="SourceGraphic" in2="BackgroundImageFix" result="shape"/>
<feGaussianBlur stdDeviation="200" result="effect1_foregroundBlur_70_39"/>
</filter>
<linearGradient id="paint0_linear_70_39" x1="2315.75" y1="1169.5" x2="2315.75" y2="1205.5" gradientUnits="userSpaceOnUse">
<stop offset="0.278846" stop-color="#592F31"/>
<stop offset="1" stop-color="#592F31" stop-opacity="0"/>
</linearGradient>
<linearGradient id="paint1_linear_70_39" x1="2422.19" y1="1129.88" x2="2381.29" y2="1224.99" gradientUnits="userSpaceOnUse">
<stop offset="0.442308" stop-color="#592F31"/>
<stop offset="1" stop-color="#592F31" stop-opacity="0"/>
</linearGradient>
<linearGradient id="paint2_linear_70_39" x1="2281.47" y1="1232.4" x2="2329.07" y2="1324.34" gradientUnits="userSpaceOnUse">
<stop offset="0.442308" stop-color="#592F31"/>
<stop offset="1" stop-color="#592F31" stop-opacity="0"/>
</linearGradient>
<linearGradient id="paint3_linear_70_39" x1="2601.01" y1="1160.94" x2="2505.41" y2="1200.68" gradientUnits="userSpaceOnUse">
<stop offset="0.442308" stop-color="#592F31"/>
<stop offset="1" stop-color="#592F31" stop-opacity="0"/>
</linearGradient>
<linearGradient id="paint4_linear_70_39" x1="2263.14" y1="1408.3" x2="2359.62" y2="1445.84" gradientUnits="userSpaceOnUse">
<stop offset="0.442308" stop-color="#592F31"/>
<stop offset="1" stop-color="#592F31" stop-opacity="0"/>
</linearGradient>
<clipPath id="clip0_70_39">
<rect width="2560" height="1440" fill="white"/>
</clipPath>
</defs>
</svg>